<?xml version="1.0" encoding="UTF-8" standalone="no"?>
<svg
   version="1.0"
   width="43.540989pt"
   height="151.47742pt"
   viewBox="0 0 43.540989 151.47742"
   preserveAspectRatio="xMidYMid"
   id="svg50"
   sodipodi:docname="battleship-top-side.svg"
   inkscape:version="1.2.1 (9c6d41e410, 2022-07-14)"
   xmlns:inkscape="http://www.inkscape.org/namespaces/inkscape"
   xmlns:sodipodi="http://sodipodi.sourceforge.net/DTD/sodipodi-0.dtd"
   xmlns="http://www.w3.org/2000/svg"
   xmlns:svg="http://www.w3.org/2000/svg">
  <defs
     id="defs54" />
  <sodipodi:namedview
     id="namedview52"
     pagecolor="#ffffff"
     bordercolor="#000000"
     borderopacity="0.25"
     inkscape:showpageshadow="2"
     inkscape:pageopacity="0.0"
     inkscape:pagecheckerboard="0"
     inkscape:deskcolor="#d1d1d1"
     inkscape:document-units="pt"
     showgrid="false"
     inkscape:zoom="3.9155844"
     inkscape:cx="29.369818"
     inkscape:cy="102.79436"
     inkscape:window-width="1920"
     inkscape:window-height="991"
     inkscape:window-x="-9"
     inkscape:window-y="-9"
     inkscape:window-maximized="1"
     inkscape:current-layer="svg50" />
  <g
     transform="matrix(0.10460155,0,0,-0.10232911,-0.18456302,154.51696)"
     fill="#000000"
     stroke="none"
     id="g48">
    <path
       d="m 166,1453 c -30,-48 -33,-59 -21,-66 12,-6 15,-32 15,-128 0,-92 3,-120 13,-117 8,3 14,41 17,124 4,97 8,119 20,119 12,0 15,-22 18,-122 2,-100 5,-123 17,-123 12,0 15,21 15,120 0,97 3,121 15,128 13,7 10,17 -22,65 -20,31 -40,57 -44,57 -4,0 -24,-26 -43,-57 z m 71,4 c 12,-17 25,-41 28,-52 4,-11 -5,-1 -20,23 -14,23 -30,42 -35,42 -5,0 -20,-19 -34,-42 -14,-24 -26,-39 -26,-34 0,14 50,96 58,96 4,0 17,-15 29,-33 z"
       id="path2" />
    <path
       d="m 131,1313 c -1,-36 3,-63 9,-63 12,0 12,77 0,105 -6,14 -9,2 -9,-42 z"
       id="path4" />
    <path
       d="m 200,1310 c 0,-33 4,-60 10,-60 6,0 10,27 10,60 0,33 -4,60 -10,60 -6,0 -10,-27 -10,-60 z"
       id="path6" />
    <path
       d="m 276,1354 c -10,-26 -7,-104 4,-104 6,0 10,27 10,60 0,62 -3,72 -14,44 z"
       id="path8" />
    <path
       d="M 100,1324 C 94,1308 85,1284 80,1270 30,1137 13,978 4,575 -4,181 6,120 92,57 123,34 215,23 275,34 c 80,15 130,94 141,226 9,108 -14,736 -31,827 -16,89 -62,242 -76,258 -13,13 -12,9 16,-73 51,-151 71,-306 74,-567 0,-88 4,-212 7,-275 C 413,293 399,173 368,119 326,44 205,16 114,61 80,77 65,93 44,136 20,185 17,205 12,331 c -3,80 -1,139 4,138 5,-1 17,1 27,6 10,4 23,2 32,-5 13,-11 15,-8 15,19 0,21 5,31 15,31 9,0 18,7 21,15 5,12 24,15 84,15 60,0 79,-3 84,-15 3,-8 12,-15 21,-15 10,0 15,-10 15,-31 0,-26 3,-29 14,-20 7,6 21,8 31,5 17,-7 18,6 12,242 -4,137 -11,282 -17,322 -13,86 -47,223 -58,234 -4,4 -9,-25 -11,-65 -2,-57 1,-76 13,-86 13,-11 16,-40 16,-163 0,-141 -1,-150 -20,-155 -11,-3 -20,-9 -20,-14 0,-5 -36,-9 -80,-9 -44,0 -80,4 -80,9 0,5 -9,11 -20,14 -19,5 -20,13 -20,154 1,114 4,152 15,167 17,23 19,85 6,134 -7,21 -6,43 0,59 5,14 7,28 5,31 -3,3 -10,-8 -16,-24 z M 85,1208 C 52,1096 39,974 33,722 30,583 25,472 22,475 c -9,8 -2,372 9,485 10,105 59,335 66,313 2,-6 -3,-36 -12,-65 z M 355,670 V 575 H 210 65 l -3,84 c -2,46 -1,90 2,97 4,9 41,12 148,11 l 143,-2 z"
       id="path10" />
    <path
       d="m 75,668 v -83 l 133,-3 132,-3 v 86 85 H 207 74 Z m 65,2 c 0,-56 -3,-70 -15,-70 -12,0 -15,14 -15,70 0,56 3,70 15,70 12,0 15,-14 15,-70 z m 88,-3 c 3,-62 1,-67 -18,-67 -18,0 -20,6 -20,71 0,62 2,70 18,67 14,-3 18,-16 20,-71 z m 82,3 c 0,-56 -3,-70 -15,-70 -12,0 -15,14 -15,70 0,56 3,70 15,70 12,0 15,-14 15,-70 z"
       id="path12" />
    <path
       d="m 123,670 c 0,-36 2,-50 4,-32 2,17 2,47 0,65 -2,17 -4,3 -4,-33 z"
       id="path14" />
    <path
       d="m 200,665 c 0,-30 5,-55 10,-55 6,0 10,25 10,55 0,30 -4,55 -10,55 -5,0 -10,-25 -10,-55 z"
       id="path16" />
    <path
       d="m 293,670 c 0,-36 2,-50 4,-32 2,17 2,47 0,65 -2,17 -4,3 -4,-33 z"
       id="path18" />
    <path
       d="m 126,1122 c -5,-68 -5,-126 -3,-129 18,-18 27,18 26,110 -1,153 -15,164 -23,19 z"
       id="path20" />
    <path
       d="m 199,1150 c -1,-49 -2,-100 -2,-112 -1,-12 4,-23 11,-26 9,-3 12,25 12,112 0,71 -4,116 -10,116 -6,0 -10,-37 -11,-90 z"
       id="path22" />
    <path
       d="m 276,1225 c -3,-9 -6,-66 -6,-126 0,-91 3,-109 15,-109 14,0 15,16 9,123 -4,67 -8,123 -9,125 -1,2 -5,-4 -9,-13 z"
       id="path24" />
    <path
       d="m 167,1123 c -11,-10 -8,-111 3,-118 6,-4 10,11 10,37 0,24 3,53 6,66 6,21 -5,30 -19,15 z"
       id="path26" />
    <path
       d="m 234,1066 c 7,-65 7,-66 -16,-66 -14,0 -45,-7 -71,-16 l -47,-16 v -74 c 0,-60 3,-74 15,-74 9,0 18,-7 21,-15 5,-11 23,-15 74,-15 51,0 69,4 74,15 3,8 12,15 21,15 12,0 15,14 15,75 v 74 l -39,12 c -37,11 -39,13 -29,39 13,38 6,102 -11,108 -11,4 -12,-8 -7,-62 z"
       id="path28" />
    <path
       d="m 103,1050 c 0,-36 2,-50 4,-32 2,17 2,47 0,65 -2,17 -4,3 -4,-33 z"
       id="path30" />
    <path
       d="m 308,1058 c 5,-71 10,-77 11,-15 0,31 -2,57 -7,57 -4,0 -6,-19 -4,-42 z"
       id="path32" />
    <path
       d="m 140,525 c 0,-8 -9,-15 -20,-15 -18,0 -20,-7 -20,-75 0,-73 1,-76 28,-87 35,-15 129,-15 165,0 26,11 27,14 27,87 0,68 -2,75 -20,75 -11,0 -20,7 -20,15 0,12 -14,15 -70,15 -56,0 -70,-3 -70,-15 z"
       id="path34" />
    <path
       d="M 45,458 C 35,434 44,295 55,295 c 13,0 19,155 6,168 -7,7 -12,5 -16,-5 z"
       id="path36" />
    <path
       d="m 351,456 c -14,-17 -13,-135 2,-153 19,-25 27,-1 27,77 0,80 -8,101 -29,76 z"
       id="path38" />
    <path
       d="M 90,331 C 90,304 64,281 41,287 24,291 22,288 27,248 45,95 105,39 241,52 c 88,9 132,61 147,177 9,60 8,62 -12,57 -26,-7 -46,10 -46,41 0,13 -4,22 -9,19 -4,-3 -12,-64 -16,-136 -6,-119 -8,-130 -26,-130 -18,0 -19,8 -19,108 0,59 -5,114 -10,122 -8,12 -10,8 -11,-15 -1,-16 -2,-34 -4,-40 -1,-5 -3,-47 -3,-92 -2,-76 -4,-83 -22,-83 -18,0 -20,7 -22,73 -1,39 -2,79 -4,87 -1,8 -2,30 -3,48 -1,17 -5,32 -11,32 -6,0 -10,-47 -10,-120 0,-110 -2,-120 -19,-120 -15,0 -19,11 -25,77 -3,42 -6,100 -6,129 0,29 -4,56 -10,59 -5,3 -10,-3 -10,-14 z"
       id="path40" />
    <path
       d="m 123,249 c 4,-51 7,-108 8,-128 0,-29 2,-32 9,-16 5,11 9,66 9,121 1,86 -2,103 -16,108 -14,6 -15,-2 -10,-85 z"
       id="path42" />
    <path
       d="m 283,333 c -9,-3 -13,-35 -13,-111 0,-152 16,-159 24,-12 4,67 6,123 4,125 -2,1 -9,0 -15,-2 z"
       id="path44" />
    <path
       d="m 197,303 c -2,-5 -2,-14 -1,-20 1,-7 2,-53 3,-103 0,-53 5,-90 11,-90 6,0 10,43 10,110 0,62 -4,110 -9,110 -6,0 -12,-3 -14,-7 z"
       id="path46" />
  </g>
</svg>
